<svg width="82" height="55" viewBox="0 0 82 55" fill="none" xmlns="http://www.w3.org/2000/svg">
<path d="M21.147 14.8203H16.4808C16.3956 14.2166 16.2216 13.6804 15.9588 13.2116C15.696 12.7358 15.3587 12.331 14.9467 11.9972C14.5348 11.6634 14.0589 11.4077 13.5192 11.2301C12.9865 11.0526 12.4077 10.9638 11.7827 10.9638C10.6534 10.9638 9.66974 11.2443 8.83168 11.8054C7.99361 12.3594 7.34375 13.169 6.8821 14.2344C6.42045 15.2926 6.18963 16.5781 6.18963 18.0909C6.18963 19.6463 6.42045 20.9531 6.8821 22.0114C7.35085 23.0696 8.00426 23.8686 8.84233 24.4084C9.6804 24.9482 10.6499 25.218 11.7507 25.218C12.3686 25.218 12.9403 25.1364 13.4659 24.973C13.9986 24.8097 14.4709 24.5717 14.8828 24.2592C15.2947 23.9396 15.6357 23.5526 15.9055 23.098C16.1825 22.6435 16.3743 22.125 16.4808 21.5426L21.147 21.5639C21.0263 22.5653 20.7244 23.5312 20.2415 24.4616C19.7656 25.3849 19.1229 26.2124 18.3132 26.9439C17.5107 27.6683 16.5518 28.2436 15.4368 28.6697C14.3288 29.0888 13.0753 29.2983 11.6761 29.2983C9.73011 29.2983 7.99006 28.858 6.45597 27.9773C4.92898 27.0966 3.72159 25.8217 2.83381 24.1527C1.95312 22.4837 1.51278 20.4631 1.51278 18.0909C1.51278 15.7116 1.96023 13.6875 2.85511 12.0185C3.75 10.3494 4.96449 9.07812 6.49858 8.20455C8.03267 7.32386 9.75852 6.88352 11.6761 6.88352C12.9403 6.88352 14.1122 7.06108 15.1918 7.41619C16.2784 7.77131 17.2408 8.28977 18.0788 8.97159C18.9169 9.64631 19.5987 10.4737 20.1243 11.4538C20.657 12.4339 20.9979 13.5561 21.147 14.8203ZM44.5046 18.0909C44.5046 20.4702 44.0536 22.4943 43.1516 24.1634C42.2567 25.8324 41.0352 27.1072 39.4869 27.9879C37.9457 28.8615 36.2127 29.2983 34.288 29.2983C32.3491 29.2983 30.609 28.858 29.0678 27.9773C27.5266 27.0966 26.3086 25.8217 25.4137 24.1527C24.5188 22.4837 24.0714 20.4631 24.0714 18.0909C24.0714 15.7116 24.5188 13.6875 25.4137 12.0185C26.3086 10.3494 27.5266 9.07812 29.0678 8.20455C30.609 7.32386 32.3491 6.88352 34.288 6.88352C36.2127 6.88352 37.9457 7.32386 39.4869 8.20455C41.0352 9.07812 42.2567 10.3494 43.1516 12.0185C44.0536 13.6875 44.5046 15.7116 44.5046 18.0909ZM39.8278 18.0909C39.8278 16.5497 39.5969 15.25 39.1353 14.1918C38.6808 13.1335 38.038 12.331 37.207 11.7841C36.3761 11.2372 35.4031 10.9638 34.288 10.9638C33.1729 10.9638 32.1999 11.2372 31.369 11.7841C30.538 12.331 29.8917 13.1335 29.43 14.1918C28.9755 15.25 28.7482 16.5497 28.7482 18.0909C28.7482 19.6321 28.9755 20.9318 29.43 21.9901C29.8917 23.0483 30.538 23.8509 31.369 24.3977C32.1999 24.9446 33.1729 25.218 34.288 25.218C35.4031 25.218 36.3761 24.9446 37.207 24.3977C38.038 23.8509 38.6808 23.0483 39.1353 21.9901C39.5969 20.9318 39.8278 19.6321 39.8278 18.0909ZM47.9217 29V7.18182H62.3677V10.9851H52.5346V16.1839H61.4089V19.9872H52.5346V29H47.9217ZM65.4705 29V7.18182H79.9165V10.9851H70.0835V16.1839H78.9577V19.9872H70.0835V29H65.4705Z" fill="black"/>
<path d="M21.147 33.8203H16.4808C16.3956 33.2166 16.2216 32.6804 15.9588 32.2116C15.696 31.7358 15.3587 31.331 14.9467 30.9972C14.5348 30.6634 14.0589 30.4077 13.5192 30.2301C12.9865 30.0526 12.4077 29.9638 11.7827 29.9638C10.6534 29.9638 9.66974 30.2443 8.83168 30.8054C7.99361 31.3594 7.34375 32.169 6.8821 33.2344C6.42045 34.2926 6.18963 35.5781 6.18963 37.0909C6.18963 38.6463 6.42045 39.9531 6.8821 41.0114C7.35085 42.0696 8.00426 42.8686 8.84233 43.4084C9.6804 43.9482 10.6499 44.218 11.7507 44.218C12.3686 44.218 12.9403 44.1364 13.4659 43.973C13.9986 43.8097 14.4709 43.5717 14.8828 43.2592C15.2947 42.9396 15.6357 42.5526 15.9055 42.098C16.1825 41.6435 16.3743 41.125 16.4808 40.5426L21.147 40.5639C21.0263 41.5653 20.7244 42.5312 20.2415 43.4616C19.7656 44.3849 19.1229 45.2124 18.3132 45.9439C17.5107 46.6683 16.5518 47.2436 15.4368 47.6697C14.3288 48.0888 13.0753 48.2983 11.6761 48.2983C9.73011 48.2983 7.99006 47.858 6.45597 46.9773C4.92898 46.0966 3.72159 44.8217 2.83381 43.1527C1.95312 41.4837 1.51278 39.4631 1.51278 37.0909C1.51278 34.7116 1.96023 32.6875 2.85511 31.0185C3.75 29.3494 4.96449 28.0781 6.49858 27.2045C8.03267 26.3239 9.75852 25.8835 11.6761 25.8835C12.9403 25.8835 14.1122 26.0611 15.1918 26.4162C16.2784 26.7713 17.2408 27.2898 18.0788 27.9716C18.9169 28.6463 19.5987 29.4737 20.1243 30.4538C20.657 31.4339 20.9979 32.5561 21.147 33.8203ZM44.5046 37.0909C44.5046 39.4702 44.0536 41.4943 43.1516 43.1634C42.2567 44.8324 41.0352 46.1072 39.4869 46.9879C37.9457 47.8615 36.2127 48.2983 34.288 48.2983C32.3491 48.2983 30.609 47.858 29.0678 46.9773C27.5266 46.0966 26.3086 44.8217 25.4137 43.1527C24.5188 41.4837 24.0714 39.4631 24.0714 37.0909C24.0714 34.7116 24.5188 32.6875 25.4137 31.0185C26.3086 29.3494 27.5266 28.0781 29.0678 27.2045C30.609 26.3239 32.3491 25.8835 34.288 25.8835C36.2127 25.8835 37.9457 26.3239 39.4869 27.2045C41.0352 28.0781 42.2567 29.3494 43.1516 31.0185C44.0536 32.6875 44.5046 34.7116 44.5046 37.0909ZM39.8278 37.0909C39.8278 35.5497 39.5969 34.25 39.1353 33.1918C38.6808 32.1335 38.038 31.331 37.207 30.7841C36.3761 30.2372 35.4031 29.9638 34.288 29.9638C33.1729 29.9638 32.1999 30.2372 31.369 30.7841C30.538 31.331 29.8917 32.1335 29.43 33.1918C28.9755 34.25 28.7482 35.5497 28.7482 37.0909C28.7482 38.6321 28.9755 39.9318 29.43 40.9901C29.8917 42.0483 30.538 42.8509 31.369 43.3977C32.1999 43.9446 33.1729 44.218 34.288 44.218C35.4031 44.218 36.3761 43.9446 37.207 43.3977C38.038 42.8509 38.6808 42.0483 39.1353 40.9901C39.5969 39.9318 39.8278 38.6321 39.8278 37.0909ZM47.9217 48V26.1818H62.3677V29.9851H52.5346V35.1839H61.4089V38.9872H52.5346V48H47.9217ZM65.4705 48V26.1818H79.9165V29.9851H70.0835V35.1839H78.9577V38.9872H70.0835V48H65.4705Z" fill="black"/>
</svg>
