<svg width="17" height="16" viewBox="0 0 17 16" fill="none" xmlns="http://www.w3.org/2000/svg">
<path d="M8.20494 2.98L9.00894 2.819V0H8.00894C5.22494 0 3.10294 0.771 1.69994 2.292C-0.188064 4.34 0.00193655 6.97 0.00793655 7V15C0.00793655 15.2652 0.113294 15.5196 0.30083 15.7071C0.488366 15.8946 0.74272 16 1.00794 16H8.00794C9.11094 16 10.0079 15.103 10.0079 14V7C10.0079 6.73478 9.90258 6.48043 9.71504 6.29289C9.52751 6.10536 9.27315 6 9.00794 6H4.92894C4.95094 5.598 5.05194 5.088 5.35794 4.604C5.86694 3.803 6.82394 3.257 8.20494 2.98V2.98Z" fill="white"/>
<path d="M7.80594 13.02L7.00194 13.18V16H8.00194C10.7849 16 12.9079 15.229 14.3109 13.708C16.1979 11.66 16.0079 9.03 16.0019 9V1C16.0019 0.734784 15.8966 0.48043 15.709 0.292893C15.5215 0.105357 15.2672 0 15.0019 0H8.00194C6.89894 0 6.00194 0.897 6.00194 2V9C6.00194 9.26522 6.10729 9.51957 6.29483 9.70711C6.48237 9.89464 6.73672 10 7.00194 10H11.0799C11.0588 10.4944 10.9111 10.9751 10.6509 11.396C10.1439 12.197 9.18694 12.743 7.80594 13.02V13.02Z" fill="white"/>
<mask id="mask0_4_2" style="mask-type:alpha" maskUnits="userSpaceOnUse" x="0" y="0" width="11" height="16">
<path d="M8.20494 2.98L9.00894 2.819V0H8.00894C5.22494 0 3.10294 0.771 1.69994 2.292C-0.188064 4.34 0.00193655 6.97 0.00793655 7V15C0.00793655 15.2652 0.113294 15.5196 0.30083 15.7071C0.488366 15.8946 0.74272 16 1.00794 16H8.00794C9.11094 16 10.0079 15.103 10.0079 14V7C10.0079 6.73478 9.90258 6.48043 9.71504 6.29289C9.52751 6.10536 9.27315 6 9.00794 6H4.92894C4.95094 5.598 5.05194 5.088 5.35794 4.604C5.86694 3.803 6.82394 3.257 8.20494 2.98V2.98Z" fill="black"/>
</mask>
<g mask="url(#mask0_4_2)">
<path d="M7.80594 13.02L7.00194 13.18V16H8.00194C10.7849 16 12.9079 15.229 14.3109 13.708C16.1979 11.66 16.0079 9.03 16.0019 9V1C16.0019 0.734784 15.8966 0.48043 15.709 0.292893C15.5215 0.105357 15.2672 0 15.0019 0H8.00194C6.89894 0 6.00194 0.897 6.00194 2V9C6.00194 9.26522 6.10729 9.51957 6.29483 9.70711C6.48237 9.89464 6.73672 10 7.00194 10H11.0799C11.0588 10.4944 10.9111 10.9751 10.6509 11.396C10.1439 12.197 9.18694 12.743 7.80594 13.02V13.02Z" fill="black"/>
</g>
</svg>
